<svg xmlns="http://www.w3.org/2000/svg" width="192" height="192" viewBox="0 0 192 192">
  <rect width="192" height="192" rx="32" fill="#0d1117"/>
  <defs>
    <linearGradient id="g1" x1="0%" y1="0%" x2="100%" y2="100%">
      <stop offset="0%" stop-color="#58a6ff"/>
      <stop offset="100%" stop-color="#3fb950"/>
    </linearGradient>
  </defs>
  <!-- DNA Helix -->
  <path d="M70 40 C70 60 122 70 122 90 C122 110 70 120 70 140 M122 40 C122 60 70 70 70 90 C70 110 122 120 122 140" 
        stroke="url(#g1)" stroke-width="6" fill="none" stroke-linecap="round"/>
  <!-- Rungs -->
  <line x1="78" y1="55" x2="114" y2="55" stroke="#58a6ff" stroke-width="3" opacity="0.6"/>
  <line x1="72" y1="75" x2="120" y2="75" stroke="#3fb950" stroke-width="3" opacity="0.6"/>
  <line x1="72" y1="90" x2="120" y2="90" stroke="#58a6ff" stroke-width="3" opacity="0.6"/>
  <line x1="72" y1="108" x2="120" y2="108" stroke="#3fb950" stroke-width="3" opacity="0.6"/>
  <line x1="78" y1="126" x2="114" y2="126" stroke="#58a6ff" stroke-width="3" opacity="0.6"/>
  <!-- Kanban dots -->
  <circle cx="50" cy="160" r="5" fill="#f85149" opacity="0.8"/>
  <circle cx="70" cy="160" r="5" fill="#d29922" opacity="0.8"/>
  <circle cx="90" cy="160" r="5" fill="#58a6ff" opacity="0.8"/>
  <circle cx="110" cy="160" r="5" fill="#3fb950" opacity="0.8"/>
</svg>
